<svg height="512pt" viewBox="0 -112 512 511" width="512pt" xmlns="http://www.w3.org/2000/svg"><path d="m416.320312 232.449219c0 8.855469-7.175781 16.035156-16.03125 16.035156-8.851562 0-16.03125-7.179687-16.03125-16.035156 0-8.851563 7.179688-16.03125 16.03125-16.03125 8.855469 0 16.03125 7.179687 16.03125 16.03125zm0 0" fill="#ffe07d"/><path d="m342.070312 87.398438c3.464844-5.164063 3.503907-12.289063.082032-17.484376-3.078125-4.679687-7.894532-7.125-12.792969-7.339843-3.953125-.171875-7.171875-3.398438-7.335937-7.351563-.207032-4.898437-2.644532-9.71875-7.316407-12.808594-5.1875-3.429687-12.316406-3.402343-17.484375.054688-7.136718 4.773438-9.003906 13.613281-5.605468 20.515625 1.503906 3.050781.511718 6.765625-1.898438 9.167969l-40.449219 40.378906 22.65625 22.691406 40.445313-40.375c2.410156-2.402344 6.125-3.390625 9.175781-1.882812 6.894531 3.414062 15.738281 1.558594 20.523437-5.566406zm0 0" fill="#f9eac7"/><path d="m321.546875 92.964844c6.894531 3.414062 15.738281 1.558594 20.523437-5.566406 3.464844-5.164063 3.503907-12.289063.082032-17.484376-3.078125-4.679687-7.894532-7.125-12.792969-7.339843-1.976563-.085938-3.769531-.9375-5.089844-2.257813l-63.671875 63.5625 11.324219 11.34375 40.449219-40.375c2.40625-2.402344 6.125-3.390625 9.175781-1.882812zm0 0" fill="#f4dbb3"/><path d="m226.90625 248.484375c1.75-5.316406 2.914062-10.785156 3.394531-16.308594 2.566407-29.734375 13.953125-58.003906 35.074219-79.089843l5.574219-5.5625c9.214843-9.203126 10.589843-24.347657 1.882812-34.035157-9.28125-10.328125-25.195312-10.652343-34.898437-.96875l-6.5625 6.550781c-20.769532 20.734376-48.433594 32.898438-77.722656 34.808594-17.507813 1.140625-34.667969 8.636719-47.746094 22.527344-18.378906 19.53125-23.542969 47.640625-15.65625 72.078125zm0 0" fill="#d19a6e"/><path d="m86.6875 225.941406c.023438 7.625 1.203125 15.246094 3.558594 22.542969h136.660156c1.75-5.316406 2.914062-10.785156 3.394531-16.308594.179688-2.085937.40625-4.164062.675781-6.234375zm0 0" fill="#b57f5f"/><path d="m226.90625 248.484375c1.75-5.316406 2.914062-10.785156 3.394531-16.308594 2.566407-29.734375 13.953125-58.003906 35.074219-79.089843l5.574219-5.5625c9.214843-9.203126 10.589843-24.347657 1.882812-34.035157-.296875-.328125-.652343-.558593-.960937-.867187l-23.484375 23.445312c-21.121094 21.082032-38.171875 43.683594-40.742188 73.414063-1.203125 13.925781-6.476562 27.546875-15.765625 39.003906zm0 0" fill="#b57f5f"/><path d="m460.234375 181.382812c5.597656-2.710937 9.222656-8.847656 8.886719-15.058593-.300782-5.59375-3.230469-10.132813-7.351563-12.789063-3.324219-2.140625-4.480469-6.550781-2.628906-10.046875 2.289063-4.332031 2.613281-9.726562.136719-14.75-2.753906-5.574219-8.921875-9.144531-15.128906-8.765625-8.566407.523438-14.636719 7.21875-15.179688 14.890625-.242188 3.394531-2.972656 6.101563-6.265625 6.964844l-55.285156 14.484375 8.125 31.015625 55.285156-14.480469c3.292969-.863281 7 .15625 8.875 2.996094 4.234375 6.425781 12.808594 9.28125 20.53125 5.539062zm0 0" fill="#f9eac7"/><path d="m439.703125 175.84375c4.234375 6.425781 12.808594 9.28125 20.53125 5.539062 5.597656-2.710937 9.222656-8.847656 8.886719-15.058593-.300782-5.59375-3.230469-10.132813-7.351563-12.789063-1.660156-1.066406-2.78125-2.707031-3.253906-4.515625l-87.035156 22.800781 4.066406 15.507813 55.285156-14.480469c3.289063-.863281 6.996094.15625 8.871094 2.996094zm0 0" fill="#f4dbb3"/><path d="m360.886719 199.457031 7.617187-1.996093c12.597656-3.300782 21.417969-15.691407 18.78125-28.445313-2.8125-13.597656-16.390625-21.902344-29.652344-18.425781l-8.96875 2.347656c-28.390624 7.4375-58.417968 4-84.671874-9.117188-15.695313-7.839843-34.296876-10.015624-52.59375-4.605468-36.003907 10.640625-58.269532 48.828125-49.792969 85.40625 9.214843 39.769531 49.355469 63.828125 88.578125 53.554687 17.085937-4.476562 31.101562-14.722656 40.542968-28.097656 17.207032-24.382813 41.289063-43.058594 70.160157-50.621094zm0 0" fill="#b57f5f"/><path d="m290.726562 250.078125c17.207032-24.382813 41.289063-43.058594 70.160157-50.621094l7.621093-1.996093c12.59375-3.300782 21.414063-15.691407 18.777344-28.441407-.089844-.433593-.277344-.8125-.390625-1.234375l-32.101562 8.410156c-28.867188 7.5625-54.984375 18.484376-72.191407 42.867188-9.441406 13.375-23.457031 23.621094-40.542968 28.097656-33.222656 8.703125-67.03125-7.28125-82.21875-36.53125.117187 4.652344.6875 9.335938 1.765625 13.992188 9.214843 39.773437 49.355469 63.832031 88.578125 53.554687 17.085937-4.476562 31.101562-14.722656 40.542968-28.097656zm0 0" fill="#9f6e50"/><path d="m331.878906 205.875c-3.300781-.390625-6.441406.035156-9.277344 1.097656-3.242187 1.210938-7.050781-.140625-8.546874-3.261718-3.21875-6.703126-10.03125-11.339844-17.972657-11.339844-7.941406 0-14.753906 4.636718-17.972656 11.339844-1.496094 3.121093-5.308594 4.472656-8.550781 3.261718-2.835938-1.0625-5.976563-1.488281-9.273438-1.097656-9.933594 1.175781-17.707031 10.082031-17.644531 20.082031.121094 20.019531 20.140625 46.574219 53.441406 46.574219 33.296875 0 53.316407-26.554688 53.4375-46.574219.0625-10.003906-7.710937-18.90625-17.640625-20.082031zm0 0" fill="#b3e59f"/><path d="m239.96875 228.441406c0 11.070313-8.972656 20.042969-20.042969 20.042969-11.066406 0-20.039062-8.972656-20.039062-20.042969 0-11.066406 8.972656-20.039062 20.039062-20.039062 11.070313 0 20.042969 8.972656 20.042969 20.039062zm0 0" fill="#ff8086"/><path d="m229.949219 238.464844c-11.070313 0-20.042969-8.972656-20.042969-20.039063 0-2.9375.667969-5.707031 1.804688-8.21875-6.960938 3.140625-11.824219 10.105469-11.824219 18.238281 0 11.066407 8.972656 20.039063 20.042969 20.039063 8.128906 0 15.09375-4.863281 18.238281-11.820313-2.515625 1.132813-5.285157 1.800782-8.21875 1.800782zm0 0" fill="#e5646e"/><path d="m53.070312 248.484375c9.246094 0 18.042969 3.992187 24.132813 10.949219l8.894531 10.164062c6.085938 6.960938 14.882813 10.953125 24.128906 10.953125h291.546876c9.246093 0 18.042968-3.992187 24.132812-10.953125l8.894531-10.164062c6.085938-6.957032 14.882813-10.949219 24.128907-10.949219zm0 0" fill="#dad8db"/><path d="m504.5 240.984375h-82.285156c1.035156-2.648437 1.609375-5.523437 1.609375-8.535156 0-12.972657-10.558594-23.53125-23.535157-23.53125-12.972656 0-23.53125 10.558593-23.53125 23.53125 0 3.011719.574219 5.886719 1.609376 8.535156h-19.875c.792968-2.761719 1.203124-5.628906 1.203124-8.535156 0-8.683594-3.53125-16.5625-9.230468-22.273438 3.972656-1.601562 8.019531-2.957031 12.121094-4.050781l8.925781-2.378906c7.777343-2.074219 14.097656-6.902344 18.207031-13.152344l38.128906-10.171875c2.957032-.789063 5.980469-.117187 7.703125 1.714844 5.945313 6.324219 14.84375 8.863281 23.226563 6.625 6.070312-1.617188 11.152344-5.507813 14.300781-10.945313 3.148437-5.441406 3.988281-11.78125 2.371094-17.855468-1.523438-5.710938-5.105469-10.601563-10.085938-13.777344-.050781-.03125-.089843-.179688-.0625-.234375 2.738281-5.234375 3.40625-11.257813 1.882813-16.96875-1.621094-6.074219-5.507813-11.152344-10.949219-14.300781-5.4375-3.148438-11.78125-3.992188-17.851563-2.371094-8.382812 2.234375-14.832031 8.871094-16.835937 17.3125-.582031 2.445312-2.871094 4.535156-5.828125 5.324218l-38.128906 10.171876c-6.675782-3.375-14.5625-4.414063-22.339844-2.339844l-6.703125 1.789062c-20.699219 5.523438-42.792969 4.957032-64.820313-1.535156 1.652344-3.570312 2.625-7.445312 2.847657-11.464844l27.886719-27.882812c2.167968-2.167969 5.121093-3.097656 7.527343-2.378906 8.3125 2.496093 17.285157.238281 23.417969-5.894532 9.175781-9.175781 9.175781-24.105468 0-33.28125-4.175781-4.179687-9.726562-6.617187-15.628906-6.871094-.0625 0-.171875-.109374-.171875-.171874-.253907-5.898438-2.691407-11.449219-6.871094-15.628907-4.445313-4.445312-10.355469-6.894531-16.640625-6.894531s-12.195312 2.449219-16.640625 6.894531c-6.132813 6.132813-8.394531 15.105469-5.898437 23.417969.722656 2.40625-.207032 5.363281-2.375 7.527344l-27.902344 27.902344c-7.46875.425781-14.8125 3.476562-20.503906 9.171874l-4.90625 4.902344c-19.566407 19.566406-46.230469 31.519532-77.105469 34.558594-19.125 1.886719-36.925781 10.660156-50.125 24.710938-16.527344 17.589843-23.597657 43.960937-19.140625 69.332031h-73.996094c-4.140625 0-7.5 3.359375-7.5 7.5 0 4.144531 3.359375 7.5 7.5 7.5h45.570312c7.082032 0 13.824219 3.058593 18.488282 8.390625l8.894531 10.164062c7.511719 8.585938 18.363281 13.511719 29.773437 13.511719h291.546876c11.410156 0 22.261718-4.925781 29.773437-13.511719l8.894531-10.164062c4.664063-5.332032 11.402344-8.390625 18.488282-8.390625h45.570312c4.140625 0 7.5-3.355469 7.5-7.5 0-4.140625-3.359375-7.496094-7.5-7.496094zm-112.742188-8.535156c0-4.703125 3.828126-8.53125 8.53125-8.53125 4.703126 0 8.53125 3.828125 8.53125 8.53125 0 4.707031-3.828124 8.535156-8.53125 8.535156-4.703124 0-8.53125-3.828125-8.53125-8.535156zm-67.511718 8.535156 2.589844-5.179687c1.855468-3.703126.351562-8.210938-3.351563-10.0625-3.707031-1.851563-8.210937-.351563-10.0625 3.355468l-5.945313 11.886719h-3.894531v-16.550781c0-4.140625-3.359375-7.5-7.5-7.5-4.144531 0-7.5 3.359375-7.5 7.5v16.550781h-3.898437l-5.941406-11.886719c-1.851563-3.707031-6.355469-5.207031-10.0625-3.355468-3.707032 1.851562-5.207032 6.359374-3.355469 10.0625l2.589843 5.179687h-17.992187c-1.59375-2.585937-2.453125-5.53125-2.453125-8.535156 0-9.125 7.421875-16.546875 16.546875-16.546875 2.0625 0 4.132813.410156 6.148437 1.21875 1.984376.800781 4.222657.710937 6.140626-.246094 1.917968-.953125 3.335937-2.683594 3.894531-4.753906 1.953125-7.210938 8.484375-12.25 15.882812-12.25 7.398438 0 13.929688 5.039062 15.882813 12.25.558594 2.070312 1.976562 3.800781 3.894531 4.753906 1.917969.957031 4.152344 1.046875 6.140625.246094 2.015625-.808594 4.085938-1.21875 6.148438-1.21875 9.125 0 16.546874 7.421875 16.546874 16.546875 0 3.003906-.859374 5.949219-2.453124 8.535156zm-116.859375-12.542969c0-6.914062 5.625-12.539062 12.539062-12.539062 6.917969 0 12.542969 5.625 12.542969 12.539062 0 6.917969-5.625 12.542969-12.542969 12.542969-6.914062 0-12.539062-5.625-12.539062-12.542969zm212.195312-79c8.347657-2.226562 14.691407-8.492187 16.558594-16.351562.726563-3.066406 3.066406-5.476563 6.105469-6.289063 2.203125-.585937 4.5-.28125 6.476562.859375 1.96875 1.144532 3.378906 2.984375 3.96875 5.1875.550782 2.070313.308594 4.253906-.683594 6.148438-3.621093 6.925781-1.296874 15.636718 5.292969 19.839844 1.804688 1.148437 3.101563 2.921874 3.652344 4.992187.589844 2.203125.285156 4.5-.855469 6.472656-1.144531 1.972657-2.984375 3.382813-5.1875 3.96875-3.042968.8125-6.269531-.109375-8.429687-2.40625-5.53125-5.886719-14.152344-8.164062-22.5-5.933593l-29.058594 7.75c.039063-2.820313-.296875-5.691407-1.058594-8.546876-.761719-2.859374-1.902343-5.515624-3.339843-7.941406zm-67.167969 9.621094 6.703126-1.789062c4.269531-1.136719 8.730468-.546876 12.554687 1.667968s6.558594 5.785156 7.699219 10.054688c2.351562 8.816406-2.910156 17.902344-11.726563 20.257812l-8.925781 2.378906c-8.589844 2.292969-16.972656 5.582032-24.96875 9.777344-1.820312-.324218-3.691406-.507812-5.605469-.507812-1.511719 0-3.015625.113281-4.511719.332031-5.445312-9.90625-15.933593-16.363281-27.550781-16.363281-11.617187 0-22.105469 6.457031-27.554687 16.363281-1.492188-.21875-3-.332031-4.511719-.332031-9.03125 0-17.179687 3.820312-22.9375 9.925781-1.199219-1.4375-2.542969-2.746094-4.003906-3.914063l1.585937-3.171874c1.851563-3.707032.351563-8.210938-3.351562-10.0625-3.707032-1.851563-8.210938-.351563-10.066406 3.351562l-2.035157 4.074219c-1.074219-.128907-2.167969-.203125-3.277343-.203125-15.1875 0-27.542969 12.355468-27.542969 27.539062 0 4.515625 1.101562 8.777344 3.035156 12.542969h-19.445313c-3.296874-5.609375-5.722656-11.566406-7.1875-17.777344-7.328124-30.988281 13.773438-67.554687 44.269532-76.71875 14.984375-4.5 31.050781-3.429687 45.238281 3.019531 31.441406 14.285157 63.984375 17.589844 94.117187 9.554688zm-60.625-78.050781c6.105469-6.109375 8.457032-14.710938 6.136719-22.445313-.90625-3.019531-.089843-6.277344 2.136719-8.503906 1.613281-1.609375 3.753906-2.496094 6.03125-2.496094 2.28125 0 4.421875.886719 6.035156 2.496094 1.515625 1.515625 2.398438 3.527344 2.488282 5.664062.335937 7.808594 6.710937 14.183594 14.519531 14.519532 2.136719.089844 4.148437.976562 5.664062 2.492187 3.328125 3.324219 3.328125 8.738281 0 12.066407-2.226562 2.222656-5.480469 3.042968-8.5 2.136718-7.738281-2.324218-16.339843.027344-22.445312 6.136719l-21.261719 21.257813c-1.398438-2.480469-3.136719-4.789063-5.207031-6.859376-2.089844-2.089843-4.40625-3.816406-6.867188-5.199218zm-53.3125 41.972656 4.902344-4.902344c6.453125-6.449219 16.949219-6.453125 23.402344 0 3.125 3.125 4.847656 7.28125 4.847656 11.703125 0 2.925782-.769531 5.730469-2.1875 8.203125-1.648437-.679687-3.292968-1.390625-4.9375-2.136719-10.195312-4.632812-21.175781-7-32.21875-7.082031 2.125-1.859375 4.191406-3.785156 6.191406-5.785156zm181.785157 141.675781c-4.667969 5.332032-11.40625 8.386719-18.488281 8.386719h-291.546876c-7.082031 0-13.820312-3.058594-18.484374-8.386719l-7.59375-8.675781h27.5625c4.144531 0 7.5-3.359375 7.5-7.5 0-4.144531-3.355469-7.5-7.5-7.5h-14.9375c-4.648438-21.59375.90625-44.28125 14.792968-59.0625 10.714844-11.40625 25.15625-18.527344 40.667969-20.054687 6.246094-.613282 12.335937-1.566407 18.261719-2.839844-14.800782 18.953125-21.835938 44.25-16.304688 67.628906 1.160156 4.921875 2.8125 9.703125 4.910156 14.328125h-15.328124c-4.140626 0-7.5 3.355469-7.5 7.5 0 4.140625 3.359374 7.5 7.5 7.5h284.078124zm0 0"/><path d="m160.324219 104.191406c0 4.144532 3.355469 7.5 7.5 7.5 4.140625 0 7.5-3.355468 7.5-7.5 0-4.6875 1.886719-6.785156 5.816406-10.707031 4.308594-4.308594 10.214844-10.207031 10.214844-21.320313 0-11.125-5.902344-17.03125-10.210938-21.34375-3.929687-3.933593-5.820312-6.03125-5.820312-10.738281s1.890625-6.804687 5.820312-10.738281c4.308594-4.3125 10.210938-10.21875 10.210938-21.34375 0-4.140625-3.359375-7.5-7.5-7.5s-7.5 3.359375-7.5 7.5c0 4.707031-1.890625 6.804688-5.820313 10.738281-4.3125 4.3125-10.210937 10.21875-10.210937 21.34375s5.902343 17.03125 10.210937 21.34375c3.929688 3.933594 5.820313 6.03125 5.820313 10.738281 0 4.691407-1.886719 6.785157-5.816407 10.707032-4.3125 4.308594-10.214843 10.207031-10.214843 21.320312zm0 0"/><path d="m131.105469 85.828125c-1.289063 3.9375.859375 8.171875 4.796875 9.460937.773437.253907 1.558594.375 2.332031.375 3.15625 0 6.089844-2.007812 7.125-5.171874 1.597656-4.871094 4.0625-9.332032 7.53125-13.632813 2.21875-2.746094 2.222656-6.667969.003906-9.417969-6.484375-8.042968-9.636719-16.992187-9.636719-27.359375 0-4.144531-3.359374-7.5-7.5-7.5-4.144531 0-7.5 3.355469-7.5 7.5 0 11.757813 3.191407 22.515625 9.503907 32.058594-2.875 4.320313-5.070313 8.839844-6.65625 13.6875zm0 0"/><path d="m208.417969 72.164062c0 4.816407-.703125 9.414063-2.09375 13.671876-1.285157 3.9375.863281 8.171874 4.800781 9.457031.773438.253906 1.558594.371093 2.328125.371093 3.160156 0 6.097656-2.007812 7.128906-5.171874 1.882813-5.761719 2.835938-11.929688 2.835938-18.328126 0-13.753906-4.367188-26.132812-12.980469-36.796874-2.601562-3.222657-7.324219-3.722657-10.546875-1.121094-3.222656 2.601562-3.722656 7.324218-1.121094 10.546875 6.492188 8.039062 9.648438 16.992187 9.648438 27.371093zm0 0"/></svg>